<?xml version="1.0" standalone="no"?>
<!DOCTYPE svg PUBLIC "-//W3C//DTD SVG 20010904//EN"
 "http://www.w3.org/TR/2001/REC-SVG-20010904/DTD/svg10.dtd">
<svg version="1.0" xmlns="http://www.w3.org/2000/svg"
 width="97.000000pt" height="98.000000pt" viewBox="0 0 97.000000 98.000000"
 preserveAspectRatio="xMidYMid meet">

<g transform="translate(0.000000,98.000000) scale(0.100000,-0.100000)"
fill="#000000" stroke="none">
<path d="M90 958 c-80 -41 -111 -121 -76 -201 8 -18 170 -187 367 -384 301
-299 360 -353 394 -362 130 -34 237 98 176 217 -11 20 -176 193 -368 384 -292
290 -354 348 -388 357 -53 14 -54 14 -105 -11z"/>
<path d="M527 920 l-119 -5 124 -122 c99 -96 133 -124 166 -133 96 -25 192 47
192 145 0 40 -12 68 -43 103 -22 24 -47 25 -320 12z"/>
<path d="M180 319 c-92 -37 -129 -151 -74 -231 l27 -38 96 1 c53 1 150 4 215
8 l119 6 -127 120 c-154 146 -185 162 -256 134z"/>
</g>
</svg>
